<?xml version="1.0" standalone="no"?>
<!DOCTYPE svg PUBLIC "-//W3C//DTD SVG 20010904//EN"
 "http://www.w3.org/TR/2001/REC-SVG-20010904/DTD/svg10.dtd">
<svg version="1.0" xmlns="http://www.w3.org/2000/svg"
 width="1024.000000pt" height="1024.000000pt" viewBox="0 0 1024.000000 1024.000000"
 preserveAspectRatio="xMidYMid meet">
<metadata>
Created by potrace 1.14, written by Peter Selinger 2001-2017
</metadata>
<g transform="translate(0.000000,1024.000000) scale(0.100000,-0.100000)"
fill="#000000" stroke="none">
<path d="M3394 8666 c-99 -32 -187 -88 -269 -171 -92 -93 -149 -202 -170 -327
l-6 -38 -52 -1 c-29 0 -176 -1 -327 -1 -302 -1 -363 -9 -460 -57 -175 -87
-301 -224 -353 -386 -17 -54 -93 -345 -134 -515 -14 -58 -27 -107 -29 -109 -2
-3 -30 -5 -62 -6 -91 -3 -142 -15 -217 -50 -80 -39 -163 -115 -212 -197 -59
-98 -66 -146 -66 -505 l-1 -323 -35 0 c-215 -3 -403 -154 -461 -370 -12 -45
-18 -705 -7 -781 29 -197 200 -369 400 -404 21 -3 176 -6 346 -7 l308 0 18
-77 c10 -42 25 -92 34 -111 73 -162 240 -306 411 -355 58 -16 108 -18 479 -19
l415 -1 22 -80 c26 -98 47 -146 87 -205 71 -104 208 -207 332 -251 69 -24 75
-24 470 -26 220 -2 412 -3 426 -3 24 0 27 -5 38 -62 21 -109 83 -221 170 -308
104 -104 210 -160 356 -189 3 -1 160 -1 348 -1 l344 0 16 -37 c8 -21 34 -87
57 -148 23 -60 45 -119 50 -130 35 -88 60 -153 150 -385 56 -146 122 -317 147
-380 25 -63 56 -144 70 -180 13 -36 28 -74 33 -85 5 -11 28 -71 52 -132 23
-62 48 -113 53 -113 6 0 96 27 200 59 l190 59 -1 38 c0 22 -4 66 -7 99 -4 34
-9 83 -12 110 -3 28 -7 64 -10 80 -2 17 -7 62 -10 100 -4 39 -8 77 -10 85 -2
8 -7 44 -10 80 -6 68 -12 120 -20 180 -3 19 -7 60 -10 90 -5 53 -31 287 -40
360 -2 19 -6 58 -9 85 -7 60 -16 148 -21 190 -7 58 -15 131 -30 270 -9 77 -17
156 -20 175 -2 19 -7 60 -10 90 -3 30 -8 71 -10 90 -2 19 -7 60 -10 90 -3 30
-8 71 -10 90 -2 19 -7 60 -10 90 -3 30 -8 73 -11 95 -3 22 -7 56 -9 75 -2 19
-7 60 -10 90 -6 59 -13 124 -19 180 -4 34 -11 93 -22 190 -2 25 -7 70 -10 101
-3 31 -7 64 -9 75 -2 10 -4 31 -4 45 -1 24 -7 28 -67 43 -67 17 -128 44 -176
77 -14 11 -30 19 -36 19 -5 0 -95 -69 -199 -153 l-190 -154 18 -48 c38 -100
42 -274 10 -380 -43 -142 -146 -269 -282 -348 -79 -46 -166 -69 -268 -72 -145
-3 -246 24 -351 96 -183 125 -272 297 -267 516 2 83 0 93 -18 102 -11 6 -54
25 -95 44 -41 19 -104 48 -140 64 -120 56 -159 73 -167 73 -4 0 -37 -27 -72
-60 -35 -33 -68 -60 -73 -60 -5 0 -25 -11 -46 -24 -123 -80 -363 -92 -519 -25
-59 25 -158 96 -201 143 -107 119 -155 243 -157 410 l-1 109 -44 21 c-25 12
-79 37 -120 55 -41 19 -116 53 -167 77 l-91 42 -56 -53 c-57 -55 -72 -65 -163
-110 -114 -57 -303 -68 -434 -26 -143 46 -280 165 -351 306 -71 140 -77 350
-15 497 65 154 218 290 382 340 106 32 254 30 359 -6 44 -15 99 -40 123 -57
24 -16 46 -29 49 -29 4 0 344 269 372 295 11 10 10 24 -8 81 -27 85 -33 223
-14 314 42 204 223 393 424 445 118 31 247 26 360 -11 130 -44 270 -168 333
-296 86 -174 84 -382 -6 -553 -38 -71 -152 -190 -220 -229 -195 -114 -466
-107 -640 16 l-28 20 -62 -48 c-59 -46 -96 -77 -121 -99 -6 -5 -55 -45 -108
-87 l-97 -78 20 -55 c23 -66 36 -180 29 -254 l-6 -54 101 -47 c55 -26 136 -64
180 -85 159 -74 140 -72 193 -21 66 63 92 82 160 116 78 38 138 52 242 56 189
6 332 -54 462 -195 106 -114 158 -260 152 -423 l-3 -86 47 -23 c51 -24 127
-58 237 -108 39 -17 82 -38 97 -46 39 -22 50 -19 93 26 103 108 255 172 405
173 139 1 227 -21 317 -77 21 -13 43 -26 50 -30 6 -4 52 26 105 69 51 41 109
88 128 104 19 16 55 45 79 65 24 20 53 42 64 50 19 13 19 15 2 67 -26 80 -27
85 -28 200 -2 123 3 114 -107 163 -36 15 -107 48 -158 72 -172 80 -160 77
-189 42 -61 -72 -204 -155 -303 -176 -256 -54 -508 54 -653 280 -29 44 -64
147 -72 207 -28 209 26 372 170 516 123 124 250 177 419 177 201 0 390 -102
501 -269 64 -96 88 -181 92 -319 l2 -120 213 -98 212 -99 35 39 c74 79 199
153 287 169 22 3 48 9 59 11 35 7 166 3 211 -7 157 -36 287 -128 380 -271 81
-125 109 -285 77 -444 -35 -172 -148 -317 -316 -406 -49 -26 -52 -29 -53 -68
0 -23 3 -67 7 -99 4 -31 10 -82 13 -112 15 -148 27 -249 33 -290 4 -25 6 -48
5 -53 -1 -4 2 -38 8 -75 5 -37 12 -94 15 -127 4 -33 7 -61 8 -61 2 -2 425 327
609 472 l26 20 -21 60 c-39 111 -29 311 20 419 54 120 170 242 278 295 l62 30
-7 53 c-4 28 -11 84 -14 122 -4 39 -9 86 -11 105 -3 19 -6 53 -9 75 -9 86 -19
171 -22 190 -1 11 -3 23 -3 27 -1 4 -22 10 -47 14 -26 4 -59 13 -73 20 -14 8
-31 14 -37 14 -23 0 -141 85 -189 136 -62 65 -120 161 -141 232 -20 67 -31
184 -23 240 5 42 4 44 -30 61 -65 33 -390 181 -397 181 -4 0 -19 -13 -33 -28
-102 -110 -256 -181 -406 -186 -178 -6 -321 50 -445 174 -126 127 -182 267
-177 441 l3 90 -30 14 c-17 8 -113 52 -213 98 l-182 84 -61 -58 c-51 -48 -220
-152 -220 -135 0 3 -11 1 -24 -4 -70 -26 -215 -29 -308 -6 -107 27 -185 73
-274 161 -62 62 -90 99 -117 155 -20 41 -38 86 -41 100 -3 14 -8 36 -11 50
-11 44 -8 196 5 251 24 105 78 198 165 284 124 124 258 178 429 174 341 -8
593 -276 583 -620 l-3 -86 105 -48 c59 -27 152 -71 209 -97 57 -26 106 -48
109 -48 3 0 32 25 65 55 112 104 237 156 383 159 182 5 329 -55 453 -183 121
-125 186 -318 162 -478 -6 -39 -5 -46 14 -53 12 -4 57 -25 101 -45 44 -21 107
-50 140 -65 33 -15 85 -39 115 -53 l55 -26 43 45 c65 66 151 120 239 150 99
34 254 38 348 10 210 -62 376 -236 423 -441 14 -60 7 -258 -10 -315 -20 -64
-76 -160 -133 -225 -43 -50 -171 -141 -212 -151 -22 -6 -24 -10 -19 -43 3 -20
8 -63 11 -96 3 -33 8 -71 10 -85 2 -14 7 -54 11 -90 3 -36 7 -78 10 -95 2 -16
6 -59 10 -95 7 -74 9 -80 30 -80 33 0 168 -52 217 -83 94 -60 185 -163 230
-258 48 -103 63 -251 39 -374 -44 -223 -240 -419 -460 -461 -155 -29 -329 1
-446 79 l-51 34 -115 -89 c-63 -49 -122 -95 -131 -102 -8 -7 -130 -101 -270
-210 -283 -220 -263 -194 -247 -316 7 -56 26 -218 34 -300 2 -25 6 -64 9 -87
3 -24 7 -64 10 -90 3 -27 8 -64 10 -83 3 -19 7 -62 10 -95 3 -33 8 -73 10 -90
2 -16 7 -57 10 -90 3 -33 8 -71 10 -85 2 -14 7 -56 10 -95 4 -38 8 -81 10 -95
2 -14 7 -52 10 -85 3 -33 8 -73 10 -90 2 -16 7 -57 10 -90 3 -33 8 -73 10 -90
4 -36 16 -137 20 -174 1 -14 6 -58 9 -97 4 -39 10 -91 14 -116 l7 -46 200 62
200 62 -4 90 c-9 187 -3 365 14 440 33 146 83 249 160 328 57 58 113 91 225
132 149 53 228 100 311 183 87 88 157 230 174 356 4 22 7 49 9 60 3 19 11 20
145 22 170 2 233 14 326 58 161 78 299 246 330 402 8 42 35 183 41 220 3 18
11 61 18 95 l13 63 143 2 c80 1 168 7 197 13 177 37 329 192 368 375 19 92 18
715 -1 798 -39 167 -178 312 -344 361 -30 9 -56 16 -57 16 -2 0 -24 0 -50 0
l-48 0 1 313 c1 341 -5 396 -53 493 -38 78 -137 176 -216 214 -68 32 -175 57
-245 55 -40 -1 -43 0 -51 34 -6 20 -42 162 -81 316 -39 157 -84 308 -101 344
-61 131 -175 244 -318 315 -102 51 -147 59 -352 61 -103 1 -191 5 -196 8 -6 4
-13 21 -17 39 -25 130 -182 315 -326 385 -114 56 -152 60 -596 60 l-408 1 -16
71 c-32 134 -90 233 -192 326 -79 71 -162 118 -258 144 -74 21 -92 21 -1200
21 l-1125 -1 -71 -23z"/>
<path d="M4493 7819 c-61 -24 -132 -88 -164 -150 -26 -52 -36 -156 -20 -215
24 -89 108 -179 198 -211 52 -18 158 -14 214 9 57 24 135 96 156 145 26 60 27
64 27 143 0 90 -22 145 -82 207 -86 86 -216 115 -329 72z"/>
<path d="M6018 7144 c-95 -22 -176 -90 -215 -182 -26 -59 -23 -176 7 -236 50
-105 141 -166 256 -174 98 -6 163 16 230 80 68 64 97 130 96 220 -1 197 -179
336 -374 292z"/>
<path d="M3231 6784 c-93 -24 -182 -107 -209 -194 -37 -119 -11 -228 73 -313
139 -142 366 -117 473 51 35 54 46 94 45 174 -1 192 -190 331 -382 282z"/>
<path d="M7529 6469 c-94 -14 -170 -68 -221 -157 -27 -48 -33 -69 -35 -129 -3
-104 17 -155 91 -228 73 -73 128 -95 226 -90 261 11 383 317 205 513 -62 69
-169 105 -266 91z"/>
<path d="M4720 6104 c-97 -35 -161 -88 -201 -165 -32 -63 -36 -180 -8 -247 25
-61 99 -138 159 -166 66 -30 188 -29 252 2 62 31 125 93 151 150 29 63 31 200
3 252 -61 114 -147 172 -266 177 -41 1 -82 0 -90 -3z"/>
<path d="M1970 5749 c-71 -10 -117 -34 -171 -89 -70 -70 -83 -106 -84 -220 0
-88 24 -147 83 -205 72 -69 117 -88 212 -89 104 -1 142 15 221 94 69 68 89
121 85 223 -3 88 -29 144 -94 206 -70 66 -157 94 -252 80z"/>
<path d="M6183 5412 c-153 -55 -234 -200 -200 -362 16 -76 84 -162 158 -200
36 -19 134 -41 153 -34 6 1 29 6 51 9 47 7 118 47 158 89 84 89 106 234 51
342 -69 137 -232 205 -371 156z"/>
<path d="M3412 5055 c-83 -25 -164 -99 -197 -179 -21 -50 -26 -136 -11 -194
58 -218 335 -299 502 -145 67 61 108 172 97 263 -11 99 -101 212 -198 250 -44
18 -144 20 -193 5z"/>
<path d="M7699 4735 c-74 -20 -97 -33 -142 -78 -130 -129 -126 -328 9 -446 61
-54 118 -75 204 -75 90 1 149 25 211 87 86 86 113 199 76 312 -49 146 -214
239 -358 200z"/>
<path d="M4939 4379 c-113 -17 -218 -113 -246 -224 -35 -142 33 -287 166 -353
46 -22 70 -27 131 -27 63 0 84 5 134 30 190 96 229 339 79 488 -56 57 -105 79
-203 92 -8 1 -36 -2 -61 -6z"/>
</g>
</svg>
